<?xml version="1.0" encoding="UTF-8"?> <svg xmlns="http://www.w3.org/2000/svg" width="1974" height="585" viewBox="0 0 1974 585" fill="none"> <path d="M195.5 517C158.5 517 125.167 509.333 95.5 494C65.8333 478.333 42.5 456.667 25.5 429C8.83333 401 0.5 369.333 0.5 334C0.5 298.667 8.83333 267.167 25.5 239.5C42.5 211.5 65.8333 189.833 95.5 174.5C125.167 158.833 158.5 151 195.5 151C229.5 151 259.833 157 286.5 169C313.167 181 335.167 198.333 352.5 221L278 287.5C256.333 260.167 230.833 246.5 201.5 246.5C176.833 246.5 157 254.5 142 270.5C127 286.167 119.5 307.333 119.5 334C119.5 360.667 127 382 142 398C157 413.667 176.833 421.5 201.5 421.5C230.833 421.5 256.333 407.833 278 380.5L352.5 447C335.167 469.667 313.167 487 286.5 499C259.833 511 229.5 517 195.5 517Z" fill="#333333"></path> <path d="M573.07 230.5C606.737 230.5 633.737 240.667 654.07 261C674.737 281.333 685.07 312 685.07 353V509H572.07V372.5C572.07 341.167 560.904 325.5 538.57 325.5C525.904 325.5 515.57 330 507.57 339C499.904 347.667 496.07 361.5 496.07 380.5V509H383.07V138H496.07V257.5C517.07 239.5 542.737 230.5 573.07 230.5Z" fill="#333333"></path> <path d="M1333.75 235.5H1446.75V509H1333.75V235.5ZM1390.25 213.5C1369.92 213.5 1353.42 208.167 1340.75 197.5C1328.42 186.5 1322.25 172.667 1322.25 156C1322.25 139.333 1328.42 125.667 1340.75 115C1353.42 104 1369.92 98.5 1390.25 98.5C1410.92 98.5 1427.42 103.667 1439.75 114C1452.09 124.333 1458.25 137.667 1458.25 154C1458.25 171.333 1452.09 185.667 1439.75 197C1427.42 208 1410.92 213.5 1390.25 213.5Z" fill="#333333"></path> <path d="M1604.34 265C1624.34 242 1653.84 230.5 1692.84 230.5V330.5C1683.84 329.167 1675.51 328.5 1667.84 328.5C1629.17 328.5 1609.84 348.167 1609.84 387.5V509H1496.84V235.5H1604.34V265Z" fill="#333333"></path> <path d="M1831.87 514C1808.53 514 1785.53 511.5 1762.87 506.5C1740.2 501.5 1721.87 495 1707.87 487L1738.87 412.5C1751.53 420.167 1766.53 426.167 1783.87 430.5C1801.2 434.833 1818.03 437 1834.37 437C1847.37 437 1856.37 436 1861.37 434C1866.7 431.667 1869.37 428.333 1869.37 424C1869.37 419.667 1866.03 416.667 1859.37 415C1853.03 413.333 1842.53 411.667 1827.87 410C1805.53 407.333 1786.53 404 1770.87 400C1755.2 395.667 1741.37 387.5 1729.37 375.5C1717.7 363.5 1711.87 346.333 1711.87 324C1711.87 306.333 1717.2 290.5 1727.87 276.5C1738.53 262.5 1754.37 251.333 1775.37 243C1796.7 234.667 1822.2 230.5 1851.87 230.5C1872.53 230.5 1892.7 232.5 1912.37 236.5C1932.37 240.167 1949.37 245.667 1963.37 253L1932.37 327.5C1908.37 314.167 1882.03 307.5 1853.37 307.5C1828.7 307.5 1816.37 311.833 1816.37 320.5C1816.37 324.833 1819.7 328 1826.37 330C1833.03 331.667 1843.53 333.333 1857.87 335C1880.2 337.667 1899.03 341.167 1914.37 345.5C1930.03 349.833 1943.7 358 1955.37 370C1967.37 382 1973.37 399.167 1973.37 421.5C1973.37 438.5 1968.03 454 1957.37 468C1946.7 482 1930.7 493.167 1909.37 501.5C1888.03 509.833 1862.2 514 1831.87 514Z" fill="#333333"></path> <path fill-rule="evenodd" clip-rule="evenodd" d="M1150.42 0.457747C1150.42 0.709507 1149.39 0.915493 1148.13 0.915493C1146.87 0.915493 1145.84 1.12148 1145.84 1.37324C1145.84 1.625 1145.22 1.83099 1144.46 1.83099C1143.71 1.83099 1143.09 2.03697 1143.09 2.28873C1143.09 2.54049 1142.47 2.74648 1141.71 2.74648C1140.96 2.74648 1140.34 2.95246 1140.34 3.20423C1140.34 3.45599 1139.72 3.66197 1138.96 3.66197C1138.21 3.66197 1137.59 3.86796 1137.59 4.11972C1137.59 4.37148 1137.22 4.57747 1136.78 4.57747C1136.33 4.57747 1135.66 4.98944 1135.3 5.49296C1134.94 5.99648 1134.27 6.40845 1133.82 6.40845C1133.38 6.40845 1133.01 6.61444 1133.01 6.8662C1133.01 7.11796 1132.64 7.32394 1132.2 7.32394C1131.75 7.32394 1131.08 7.73592 1130.72 8.23944C1130.36 8.74296 1129.78 9.15493 1129.44 9.15493C1129.1 9.15493 1128.02 9.97887 1127.06 10.9859C1126.09 11.993 1125.07 12.8169 1124.79 12.8169C1124.13 12.8169 1118.35 18.601 1118.35 19.262C1118.35 19.5435 1117.73 20.351 1116.98 21.0563C1116.22 21.7617 1115.6 22.6232 1115.6 22.9697C1115.6 23.3167 1115.19 23.8976 1114.69 24.2606C1114.18 24.6236 1113.77 25.2868 1113.77 25.735C1113.77 26.1826 1113.57 26.5493 1113.31 26.5493C1113.06 26.5493 1112.86 27.1673 1112.86 27.9225C1112.86 28.6778 1112.65 29.2958 1112.4 29.2958C1112.15 29.2958 1111.94 29.7077 1111.94 30.2113C1111.94 30.7148 1111.73 31.1268 1111.48 31.1268C1111.23 31.1268 1111.02 31.9507 1111.02 32.9577C1111.02 33.9648 1110.82 34.7887 1110.57 34.7887C1110.31 34.7887 1110.11 36.0095 1110.11 37.5352C1110.11 39.0609 1109.9 40.2817 1109.65 40.2817C1109.37 40.2817 1109.19 42.1127 1109.19 44.8592C1109.19 47.6056 1109.37 49.4366 1109.65 49.4366C1109.91 49.4366 1110.11 50.8099 1110.11 52.6408C1110.11 54.4718 1110.3 55.8451 1110.57 55.8451C1110.82 55.8451 1111.02 56.875 1111.02 58.1338C1111.02 59.3926 1111.23 60.4225 1111.48 60.4225C1111.73 60.4225 1111.94 61.2465 1111.94 62.2535C1111.94 63.2606 1112.15 64.0845 1112.4 64.0845C1112.65 64.0845 1112.86 64.9085 1112.86 65.9155C1112.86 66.9225 1113.06 67.7465 1113.31 67.7465C1113.57 67.7465 1113.77 68.5704 1113.77 69.5775C1113.77 70.5845 1113.98 71.4084 1114.23 71.4084C1114.48 71.4084 1114.69 72.2324 1114.69 73.2394C1114.69 74.2465 1114.89 75.0704 1115.15 75.0704C1115.4 75.0704 1115.6 75.6884 1115.6 76.4437C1115.6 77.1989 1115.81 77.8169 1116.06 77.8169C1116.31 77.8169 1116.52 78.4349 1116.52 79.1901C1116.52 79.9454 1116.73 80.5634 1116.98 80.5634C1117.23 80.5634 1117.44 81.3873 1117.44 82.3944C1117.44 83.4014 1117.64 84.2253 1117.89 84.2253C1118.15 84.2253 1118.35 84.8433 1118.35 85.5986C1118.35 86.3539 1118.56 86.9718 1118.81 86.9718C1119.06 86.9718 1119.27 87.5898 1119.27 88.3451C1119.27 89.1004 1119.47 89.7183 1119.73 89.7183C1119.98 89.7183 1120.18 90.5423 1120.18 91.5493C1120.18 92.5563 1120.39 93.3803 1120.64 93.3803C1120.89 93.3803 1121.1 93.9982 1121.1 94.7535C1121.1 95.5088 1121.31 96.1268 1121.56 96.1268C1121.81 96.1268 1122.02 96.9507 1122.02 97.9578C1122.02 98.9648 1122.22 99.7887 1122.47 99.7887C1122.73 99.7887 1122.93 100.407 1122.93 101.162C1122.93 101.917 1123.14 102.535 1123.39 102.535C1123.64 102.535 1123.85 103.359 1123.85 104.366C1123.85 105.373 1124.06 106.197 1124.31 106.197C1124.56 106.197 1124.77 106.815 1124.77 107.57C1124.77 108.326 1124.97 108.944 1125.22 108.944C1125.48 108.944 1125.68 109.768 1125.68 110.775C1125.68 111.782 1125.89 112.606 1126.14 112.606C1126.39 112.606 1126.6 113.43 1126.6 114.437C1126.6 115.444 1126.8 116.268 1127.06 116.268C1127.31 116.268 1127.51 116.886 1127.51 117.641C1127.51 118.396 1127.72 119.014 1127.97 119.014C1128.22 119.014 1128.43 119.838 1128.43 120.845C1128.43 121.852 1128.64 122.676 1128.89 122.676C1129.14 122.676 1129.35 123.5 1129.35 124.507C1129.35 125.514 1129.55 126.338 1129.8 126.338C1130.06 126.338 1130.26 127.162 1130.26 128.169C1130.26 129.176 1130.47 130 1130.72 130C1130.97 130 1131.18 130.824 1131.18 131.831C1131.18 132.838 1131.38 133.662 1131.64 133.662C1131.89 133.662 1132.09 134.486 1132.09 135.493C1132.09 136.5 1132.3 137.324 1132.55 137.324C1132.8 137.324 1133.01 138.354 1133.01 139.613C1133.01 140.871 1133.22 141.901 1133.47 141.901C1133.72 141.901 1133.93 142.725 1133.93 143.732C1133.93 144.739 1134.13 145.563 1134.38 145.563C1134.64 145.563 1134.84 146.593 1134.84 147.852C1134.84 149.111 1135.05 150.141 1135.3 150.141C1135.55 150.141 1135.76 150.965 1135.76 151.972C1135.76 152.979 1135.96 153.803 1136.22 153.803C1136.47 153.803 1136.67 154.833 1136.67 156.092C1136.67 157.35 1136.88 158.38 1137.13 158.38C1137.38 158.38 1137.59 159.41 1137.59 160.669C1137.59 161.928 1137.8 162.958 1138.05 162.958C1138.3 162.958 1138.51 163.988 1138.51 165.246C1138.51 166.505 1138.71 167.535 1138.96 167.535C1139.22 167.535 1139.42 168.756 1139.42 170.282C1139.42 171.807 1139.63 173.028 1139.88 173.028C1140.14 173.028 1140.34 174.249 1140.34 175.775C1140.34 177.3 1140.54 178.521 1140.8 178.521C1141.05 178.521 1141.26 179.742 1141.26 181.268C1141.26 182.793 1141.46 184.014 1141.71 184.014C1141.98 184.014 1142.17 185.54 1142.17 187.676C1142.17 189.812 1142.36 191.338 1142.63 191.338C1142.91 191.338 1143.09 193.321 1143.09 196.373C1143.09 199.425 1143.27 201.408 1143.55 201.408C1143.84 201.408 1144 208.122 1144 220.634C1144 233.145 1143.84 239.859 1143.55 239.859C1143.28 239.859 1143.09 241.385 1143.09 243.521C1143.09 245.657 1142.9 247.183 1142.63 247.183C1142.37 247.183 1142.17 248.556 1142.17 250.387C1142.17 252.218 1141.97 253.592 1141.71 253.592C1141.46 253.592 1141.26 254.621 1141.26 255.88C1141.26 257.139 1141.05 258.169 1140.8 258.169C1140.55 258.169 1140.34 258.993 1140.34 260C1140.34 261.007 1140.13 261.831 1139.88 261.831C1139.63 261.831 1139.42 262.655 1139.42 263.662C1139.42 264.669 1139.22 265.493 1138.96 265.493C1138.71 265.493 1138.51 266.317 1138.51 267.324C1138.51 268.331 1138.3 269.155 1138.05 269.155C1137.8 269.155 1137.59 269.773 1137.59 270.528C1137.59 271.283 1137.38 271.901 1137.13 271.901C1136.88 271.901 1136.67 272.519 1136.67 273.275C1136.67 274.03 1136.47 274.648 1136.22 274.648C1135.96 274.648 1135.76 275.266 1135.76 276.021C1135.76 276.776 1135.55 277.394 1135.3 277.394C1135.05 277.394 1134.84 278.012 1134.84 278.768C1134.84 279.523 1134.64 280.141 1134.38 280.141C1134.13 280.141 1133.93 280.553 1133.93 281.056C1133.93 281.56 1133.72 281.972 1133.47 281.972C1133.22 281.972 1133.01 282.59 1133.01 283.345C1133.01 284.1 1132.8 284.718 1132.55 284.718C1132.3 284.718 1132.09 285.13 1132.09 285.634C1132.09 286.137 1131.89 286.549 1131.64 286.549C1131.38 286.549 1131.18 286.961 1131.18 287.465C1131.18 287.968 1130.97 288.38 1130.72 288.38C1130.47 288.38 1130.26 288.792 1130.26 289.296C1130.26 289.799 1130.06 290.211 1129.8 290.211C1129.55 290.211 1129.35 290.623 1129.35 291.127C1129.35 291.63 1129.14 292.042 1128.89 292.042C1128.64 292.042 1128.43 292.454 1128.43 292.958C1128.43 293.461 1128.22 293.873 1127.97 293.873C1127.72 293.873 1127.51 294.285 1127.51 294.789C1127.51 295.292 1127.31 295.704 1127.06 295.704C1126.8 295.704 1126.6 296.071 1126.6 296.519C1126.6 296.967 1126.19 297.63 1125.68 297.993C1125.18 298.356 1124.77 299.019 1124.77 299.467C1124.77 299.915 1124.56 300.282 1124.31 300.282C1124.06 300.282 1123.85 300.611 1123.85 301.014C1123.85 301.416 1123.23 302.323 1122.47 303.028C1121.72 303.734 1121.1 304.595 1121.1 304.942C1121.1 305.289 1120.69 305.869 1120.18 306.232C1119.68 306.595 1119.27 307.172 1119.27 307.514C1119.27 307.856 1118.44 308.927 1117.44 309.894C1116.43 310.862 1115.6 311.878 1115.6 312.152C1115.6 312.808 1104.31 324.085 1103.65 324.085C1103.37 324.085 1102.57 324.702 1101.86 325.458C1101.16 326.213 1100.25 326.831 1099.85 326.831C1099.44 326.831 1099.11 327.037 1099.11 327.289C1099.11 327.54 1098.75 327.746 1098.3 327.746C1097.85 327.746 1097.19 328.158 1096.82 328.662C1096.46 329.166 1095.8 329.577 1095.35 329.577C1094.9 329.577 1094.53 329.783 1094.53 330.035C1094.53 330.287 1094.12 330.493 1093.62 330.493C1093.11 330.493 1092.7 330.699 1092.7 330.951C1092.7 331.202 1092.29 331.408 1091.79 331.408C1091.28 331.408 1090.87 331.614 1090.87 331.866C1090.87 332.118 1090.46 332.324 1089.95 332.324C1089.45 332.324 1089.04 332.53 1089.04 332.782C1089.04 333.033 1088.62 333.239 1088.12 333.239C1087.62 333.239 1087.2 333.445 1087.2 333.697C1087.2 333.949 1086.59 334.155 1085.83 334.155C1085.07 334.155 1084.46 334.361 1084.46 334.613C1084.46 334.864 1084.04 335.07 1083.54 335.07C1083.04 335.07 1082.62 335.276 1082.62 335.528C1082.62 335.78 1082.01 335.986 1081.25 335.986C1080.49 335.986 1079.88 336.192 1079.88 336.444C1079.88 336.695 1079.26 336.901 1078.5 336.901C1077.75 336.901 1077.13 337.107 1077.13 337.359C1077.13 337.611 1076.3 337.817 1075.3 337.817C1074.29 337.817 1073.46 338.023 1073.46 338.275C1073.46 338.536 1072.09 338.732 1070.26 338.732C1068.42 338.732 1067.05 338.929 1067.05 339.19C1067.05 339.468 1065.07 339.648 1062.01 339.648C1058.96 339.648 1056.97 339.468 1056.97 339.19C1056.97 338.936 1055.75 338.732 1054.22 338.732C1052.7 338.732 1051.48 338.529 1051.48 338.275C1051.48 338.023 1050.45 337.817 1049.19 337.817C1047.93 337.817 1046.9 337.611 1046.9 337.359C1046.9 337.107 1046.28 336.901 1045.52 336.901C1044.77 336.901 1044.15 336.695 1044.15 336.444C1044.15 336.192 1043.53 335.986 1042.77 335.986C1042.02 335.986 1041.4 335.78 1041.4 335.528C1041.4 335.276 1040.99 335.07 1040.48 335.07C1039.98 335.07 1039.57 334.864 1039.57 334.613C1039.57 334.361 1038.95 334.155 1038.19 334.155C1037.44 334.155 1036.82 333.949 1036.82 333.697C1036.82 333.445 1036.41 333.239 1035.9 333.239C1035.4 333.239 1034.99 333.033 1034.99 332.782C1034.99 332.53 1034.57 332.324 1034.07 332.324C1033.57 332.324 1033.15 332.118 1033.15 331.866C1033.15 331.614 1032.74 331.408 1032.24 331.408C1031.73 331.408 1031.32 331.202 1031.32 330.951C1031.32 330.699 1030.91 330.493 1030.41 330.493C1029.9 330.493 1029.49 330.287 1029.49 330.035C1029.49 329.783 1029.12 329.577 1028.68 329.577C1028.23 329.577 1027.56 329.166 1027.2 328.662C1026.84 328.158 1026.17 327.746 1025.72 327.746C1025.28 327.746 1024.91 327.54 1024.91 327.289C1024.91 327.037 1024.54 326.831 1024.09 326.831C1023.65 326.831 1022.98 326.419 1022.62 325.915C1022.26 325.412 1021.64 325 1021.24 325C1020.85 325 1020.23 324.588 1019.87 324.085C1019.51 323.581 1018.93 323.169 1018.58 323.169C1018.23 323.169 1017.37 322.551 1016.66 321.796C1015.96 321.041 1015.14 320.423 1014.84 320.423C1014.55 320.423 1013.51 319.599 1012.54 318.592C1011.57 317.585 1010.54 316.761 1010.25 316.761C1009.96 316.761 1008.93 315.937 1007.96 314.93C1006.99 313.923 1005.96 313.099 1005.67 313.099C1005.38 313.099 1004.35 312.275 1003.38 311.268C1002.41 310.261 1001.39 309.437 1001.11 309.437C1000.83 309.437 998.349 307.171 995.594 304.401C992.839 301.632 990.368 299.366 990.103 299.366C989.838 299.366 985.919 295.658 981.394 291.127C976.87 286.595 972.951 282.887 972.686 282.887C972.421 282.887 969.95 280.622 967.195 277.852C964.439 275.083 961.959 272.817 961.683 272.817C961.407 272.817 960.177 271.787 958.95 270.528C957.723 269.269 956.483 268.239 956.195 268.239C955.907 268.239 954.879 267.416 953.911 266.408C952.943 265.401 951.908 264.577 951.612 264.577C951.315 264.577 950.494 263.96 949.789 263.204C949.083 262.449 948.221 261.831 947.874 261.831C947.527 261.831 946.945 261.419 946.582 260.915C946.219 260.412 945.555 260 945.107 260C944.659 260 944.292 259.794 944.292 259.542C944.292 259.291 943.925 259.085 943.477 259.085C943.029 259.085 942.365 258.673 942.002 258.169C941.638 257.666 941.02 257.254 940.628 257.254C940.235 257.254 939.617 256.842 939.253 256.338C938.89 255.835 938.226 255.423 937.778 255.423C937.33 255.423 936.963 255.217 936.963 254.965C936.963 254.713 936.551 254.507 936.047 254.507C935.543 254.507 935.131 254.301 935.131 254.049C935.131 253.798 934.719 253.592 934.215 253.592C933.711 253.592 933.299 253.386 933.299 253.134C933.299 252.882 932.886 252.676 932.383 252.676C931.879 252.676 931.466 252.47 931.466 252.218C931.466 251.967 931.054 251.761 930.55 251.761C930.046 251.761 929.634 251.555 929.634 251.303C929.634 251.051 929.222 250.845 928.718 250.845C928.214 250.845 927.802 250.639 927.802 250.387C927.802 250.136 927.39 249.93 926.886 249.93C926.382 249.93 925.97 249.724 925.97 249.472C925.97 249.22 925.558 249.014 925.054 249.014C924.55 249.014 924.138 248.808 924.138 248.556C924.138 248.305 923.725 248.099 923.221 248.099C922.718 248.099 922.305 247.893 922.305 247.641C922.305 247.389 921.687 247.183 920.931 247.183C920.175 247.183 919.557 246.977 919.557 246.725C919.557 246.474 918.939 246.268 918.183 246.268C917.427 246.268 916.809 246.062 916.809 245.81C916.809 245.558 916.396 245.352 915.893 245.352C915.389 245.352 914.977 245.146 914.977 244.894C914.977 244.643 914.152 244.437 913.144 244.437C912.137 244.437 911.312 244.231 911.312 243.979C911.312 243.727 910.488 243.521 909.48 243.521C908.472 243.521 907.648 243.315 907.648 243.063C907.648 242.812 906.823 242.606 905.815 242.606C904.808 242.606 903.983 242.4 903.983 242.148C903.983 241.893 902.762 241.69 901.235 241.69C899.708 241.69 898.487 241.487 898.487 241.232C898.487 240.955 896.502 240.775 893.448 240.775C890.394 240.775 888.409 240.594 888.409 240.317C888.409 240.062 887.188 239.859 885.661 239.859C884.134 239.859 882.913 240.062 882.913 240.317C882.913 240.592 881.081 240.775 878.332 240.775C875.584 240.775 873.752 240.958 873.752 241.232C873.752 241.487 872.53 241.69 871.003 241.69C869.477 241.69 868.255 241.893 868.255 242.148C868.255 242.4 867.224 242.606 865.965 242.606C864.705 242.606 863.674 242.812 863.674 243.063C863.674 243.315 863.056 243.521 862.3 243.521C861.545 243.521 860.926 243.727 860.926 243.979C860.926 244.231 860.102 244.437 859.094 244.437C858.086 244.437 857.262 244.643 857.262 244.894C857.262 245.146 856.85 245.352 856.346 245.352C855.842 245.352 855.43 245.558 855.43 245.81C855.43 246.062 854.811 246.268 854.055 246.268C853.3 246.268 852.681 246.474 852.681 246.725C852.681 246.977 852.063 247.183 851.307 247.183C850.551 247.183 849.933 247.389 849.933 247.641C849.933 247.893 849.521 248.099 849.017 248.099C848.513 248.099 848.101 248.305 848.101 248.556C848.101 248.808 847.688 249.014 847.185 249.014C846.681 249.014 846.268 249.22 846.268 249.472C846.268 249.724 845.856 249.93 845.352 249.93C844.848 249.93 844.436 250.136 844.436 250.387C844.436 250.639 844.024 250.845 843.52 250.845C843.016 250.845 842.604 251.051 842.604 251.303C842.604 251.555 842.237 251.761 841.789 251.761C841.341 251.761 840.677 252.173 840.314 252.676C839.951 253.18 839.287 253.592 838.838 253.592C838.39 253.592 838.023 253.798 838.023 254.049C838.023 254.301 837.611 254.507 837.107 254.507C836.604 254.507 836.191 254.713 836.191 254.965C836.191 255.217 835.824 255.423 835.376 255.423C834.928 255.423 834.264 255.835 833.901 256.338C833.538 256.842 832.919 257.254 832.527 257.254C832.134 257.254 831.516 257.666 831.153 258.169C830.789 258.673 830.208 259.085 829.861 259.085C829.514 259.085 828.652 259.702 827.946 260.458C827.24 261.213 826.416 261.831 826.114 261.831C825.812 261.831 824.988 262.449 824.282 263.204C823.576 263.96 822.758 264.577 822.465 264.577C822.172 264.577 820.928 265.607 819.701 266.866C818.474 268.125 817.237 269.155 816.953 269.155C816.669 269.155 815.432 270.185 814.205 271.444C812.978 272.702 811.745 273.732 811.466 273.732C811.187 273.732 809.328 275.38 807.334 277.394C805.34 279.408 803.486 281.056 803.213 281.056C802.941 281.056 800.879 282.91 798.631 285.176C796.383 287.442 794.322 289.296 794.052 289.296C793.781 289.296 791.514 291.356 789.012 293.873C786.51 296.391 784.246 298.451 783.98 298.451C783.715 298.451 779.589 302.364 774.812 307.148C770.035 311.931 765.915 315.845 765.657 315.845C764.968 315.845 743.664 337.25 743.664 337.942C743.664 338.265 743.252 338.827 742.748 339.19C742.244 339.553 741.832 340.216 741.832 340.665C741.832 341.112 741.626 341.479 741.374 341.479C741.122 341.479 740.916 342.303 740.916 343.31C740.916 344.317 740.71 345.141 740.458 345.141C740.183 345.141 740 346.972 740 349.718C740 352.465 740.183 354.296 740.458 354.296C740.71 354.296 740.916 354.914 740.916 355.669C740.916 356.424 741.122 357.042 741.374 357.042C741.626 357.042 741.832 357.66 741.832 358.415C741.832 359.171 742.038 359.789 742.29 359.789C742.542 359.789 742.748 360.407 742.748 361.162C742.748 361.917 742.954 362.535 743.206 362.535C743.458 362.535 743.664 363.153 743.664 363.908C743.664 364.664 743.871 365.282 744.122 365.282C744.374 365.282 744.581 365.694 744.581 366.197C744.581 366.701 744.787 367.113 745.039 367.113C745.291 367.113 745.497 367.731 745.497 368.486C745.497 369.241 745.703 369.859 745.955 369.859C746.207 369.859 746.413 370.271 746.413 370.775C746.413 371.278 746.619 371.69 746.871 371.69C747.123 371.69 747.329 372.308 747.329 373.063C747.329 373.819 747.535 374.437 747.787 374.437C748.039 374.437 748.245 375.055 748.245 375.81C748.245 376.565 748.451 377.183 748.703 377.183C748.955 377.183 749.161 377.595 749.161 378.099C749.161 378.602 749.367 379.014 749.619 379.014C749.871 379.014 750.077 379.632 750.077 380.387C750.077 381.143 750.283 381.761 750.535 381.761C750.787 381.761 750.993 382.173 750.993 382.676C750.993 383.18 751.199 383.592 751.451 383.592C751.703 383.592 751.909 384.004 751.909 384.507C751.909 385.011 752.116 385.423 752.367 385.423C752.619 385.423 752.826 386.041 752.826 386.796C752.826 387.551 753.032 388.169 753.284 388.169C753.535 388.169 753.742 388.581 753.742 389.085C753.742 389.588 753.948 390 754.2 390C754.452 390 754.658 390.412 754.658 390.915C754.658 391.419 754.864 391.831 755.116 391.831C755.368 391.831 755.574 392.449 755.574 393.204C755.574 393.96 755.78 394.577 756.032 394.577C756.284 394.577 756.49 394.989 756.49 395.493C756.49 395.997 756.696 396.408 756.948 396.408C757.2 396.408 757.406 396.82 757.406 397.324C757.406 397.827 757.612 398.239 757.864 398.239C758.116 398.239 758.322 398.651 758.322 399.155C758.322 399.658 758.528 400.07 758.78 400.07C759.032 400.07 759.238 400.482 759.238 400.986C759.238 401.489 759.444 401.901 759.696 401.901C759.948 401.901 760.154 402.313 760.154 402.817C760.154 403.32 760.36 403.732 760.612 403.732C760.864 403.732 761.07 404.099 761.07 404.547C761.07 404.995 761.483 405.658 761.987 406.021C762.49 406.384 762.903 407.047 762.903 407.496C762.903 407.943 763.109 408.31 763.361 408.31C763.613 408.31 763.819 408.722 763.819 409.225C763.819 409.729 764.025 410.141 764.277 410.141C764.529 410.141 764.735 410.553 764.735 411.056C764.735 411.56 764.941 411.972 765.193 411.972C765.445 411.972 765.651 412.339 765.651 412.786C765.651 413.234 766.063 413.898 766.567 414.261C767.071 414.624 767.483 415.287 767.483 415.735C767.483 416.183 767.689 416.549 767.941 416.549C768.193 416.549 768.399 416.961 768.399 417.465C768.399 417.968 768.605 418.38 768.857 418.38C769.109 418.38 769.315 418.747 769.315 419.195C769.315 419.643 769.728 420.306 770.232 420.669C770.735 421.032 771.148 421.695 771.148 422.143C771.148 422.591 771.354 422.958 771.606 422.958C771.858 422.958 772.064 423.324 772.064 423.772C772.064 424.22 772.476 424.883 772.98 425.246C773.484 425.609 773.896 426.227 773.896 426.62C773.896 427.012 774.308 427.63 774.812 427.993C775.316 428.356 775.728 428.974 775.728 429.366C775.728 429.758 776.14 430.376 776.644 430.739C777.148 431.102 777.56 431.72 777.56 432.113C777.56 432.505 777.973 433.123 778.477 433.486C778.98 433.849 779.393 434.43 779.393 434.777C779.393 435.123 780.011 435.985 780.767 436.69C781.523 437.396 782.141 438.219 782.141 438.521C782.141 438.823 782.759 439.647 783.515 440.352C784.271 441.058 784.889 441.881 784.889 442.183C784.889 442.485 785.508 443.309 786.263 444.014C787.019 444.719 787.638 445.539 787.638 445.836C787.638 446.132 788.462 447.166 789.47 448.134C790.478 449.101 791.302 450.126 791.302 450.412C791.302 450.698 792.539 452.144 794.05 453.627C795.562 455.109 796.799 456.541 796.799 456.809C796.799 457.442 813.59 474.225 814.224 474.225C814.49 474.225 816.13 475.667 817.869 477.43C819.608 479.192 821.263 480.634 821.547 480.634C821.831 480.634 822.856 481.458 823.824 482.465C824.792 483.472 825.827 484.296 826.123 484.296C826.42 484.296 827.24 484.914 827.946 485.669C828.652 486.424 829.477 487.042 829.779 487.042C830.08 487.042 830.905 487.66 831.611 488.415C832.317 489.171 833.141 489.789 833.443 489.789C833.745 489.789 834.569 490.407 835.275 491.162C835.981 491.917 836.843 492.535 837.19 492.535C837.537 492.535 838.118 492.947 838.482 493.451C838.845 493.954 839.463 494.366 839.856 494.366C840.248 494.366 840.867 494.778 841.23 495.282C841.593 495.785 842.211 496.197 842.604 496.197C842.997 496.197 843.615 496.609 843.978 497.113C844.341 497.616 845.005 498.028 845.454 498.028C845.902 498.028 846.268 498.234 846.268 498.486C846.268 498.738 846.635 498.944 847.083 498.944C847.532 498.944 848.195 499.356 848.559 499.859C848.922 500.363 849.586 500.775 850.034 500.775C850.482 500.775 850.849 500.981 850.849 501.232C850.849 501.484 851.216 501.69 851.664 501.69C852.112 501.69 852.776 502.102 853.139 502.606C853.503 503.109 854.166 503.521 854.615 503.521C855.063 503.521 855.43 503.727 855.43 503.979C855.43 504.231 855.842 504.437 856.346 504.437C856.85 504.437 857.262 504.643 857.262 504.894C857.262 505.146 857.674 505.352 858.178 505.352C858.682 505.352 859.094 505.558 859.094 505.81C859.094 506.062 859.506 506.268 860.01 506.268C860.514 506.268 860.926 506.474 860.926 506.725C860.926 506.977 861.338 507.183 861.842 507.183C862.346 507.183 862.758 507.389 862.758 507.641C862.758 507.893 863.125 508.099 863.573 508.099C864.022 508.099 864.685 508.511 865.049 509.014C865.412 509.518 866.076 509.93 866.524 509.93C866.972 509.93 867.339 510.136 867.339 510.387C867.339 510.639 867.751 510.845 868.255 510.845C868.759 510.845 869.171 511.051 869.171 511.303C869.171 511.555 869.583 511.761 870.087 511.761C870.591 511.761 871.003 511.967 871.003 512.218C871.003 512.47 871.416 512.676 871.919 512.676C872.423 512.676 872.836 512.882 872.836 513.134C872.836 513.386 873.248 513.592 873.752 513.592C874.256 513.592 874.668 513.798 874.668 514.049C874.668 514.301 875.286 514.507 876.042 514.507C876.798 514.507 877.416 514.713 877.416 514.965C877.416 515.217 877.828 515.423 878.332 515.423C878.836 515.423 879.248 515.629 879.248 515.88C879.248 516.132 879.867 516.338 880.622 516.338C881.378 516.338 881.997 516.544 881.997 516.796C881.997 517.048 882.409 517.254 882.913 517.254C883.417 517.254 883.829 517.46 883.829 517.711C883.829 517.963 884.447 518.169 885.203 518.169C885.959 518.169 886.577 518.375 886.577 518.627C886.577 518.879 886.989 519.085 887.493 519.085C887.997 519.085 888.409 519.29 888.409 519.542C888.409 519.794 889.028 520 889.784 520C890.539 520 891.158 520.206 891.158 520.458C891.158 520.71 891.57 520.916 892.074 520.916C892.578 520.916 892.99 521.122 892.99 521.373C892.99 521.625 893.608 521.831 894.364 521.831C895.12 521.831 895.738 522.037 895.738 522.289C895.738 522.541 896.357 522.747 897.112 522.747C897.868 522.747 898.487 522.952 898.487 523.204C898.487 523.456 899.105 523.662 899.861 523.662C900.617 523.662 901.235 523.868 901.235 524.12C901.235 524.372 901.853 524.577 902.609 524.577C903.365 524.577 903.983 524.783 903.983 525.035C903.983 525.287 904.395 525.493 904.899 525.493C905.403 525.493 905.815 525.699 905.815 525.951C905.815 526.203 906.434 526.408 907.19 526.408C907.945 526.408 908.564 526.614 908.564 526.866C908.564 527.118 909.182 527.324 909.938 527.324C910.694 527.324 911.312 527.53 911.312 527.782C911.312 528.033 912.137 528.239 913.144 528.239C914.152 528.239 914.977 528.445 914.977 528.697C914.977 528.949 915.595 529.155 916.351 529.155C917.106 529.155 917.725 529.361 917.725 529.613C917.725 529.864 918.343 530.07 919.099 530.07C919.855 530.07 920.473 530.276 920.473 530.528C920.473 530.78 921.298 530.986 922.305 530.986C923.313 530.986 924.138 531.192 924.138 531.444C924.138 531.695 924.756 531.901 925.512 531.901C926.268 531.901 926.886 532.107 926.886 532.359C926.886 532.611 927.917 532.817 929.176 532.817C930.436 532.817 931.466 533.023 931.466 533.275C931.466 533.526 932.291 533.732 933.299 533.732C934.306 533.732 935.131 533.938 935.131 534.19C935.131 534.442 935.955 534.648 936.963 534.648C937.971 534.648 938.795 534.854 938.795 535.106C938.795 535.357 939.826 535.563 941.086 535.563C942.345 535.563 943.376 535.769 943.376 536.021C943.376 536.273 944.406 536.479 945.666 536.479C946.926 536.479 947.956 536.685 947.956 536.937C947.956 537.191 949.178 537.394 950.705 537.394C952.231 537.394 953.453 537.598 953.453 537.852C953.453 538.107 954.675 538.31 956.201 538.31C957.728 538.31 958.95 538.513 958.95 538.768C958.95 539.035 960.476 539.225 962.614 539.225C964.752 539.225 966.279 539.416 966.279 539.683C966.279 539.96 968.263 540.141 971.317 540.141C974.371 540.141 976.356 540.321 976.356 540.599C976.356 540.875 978.275 541.056 981.198 541.056C984.784 541.056 986.21 541.226 986.694 541.71C987.435 542.45 987.594 545.634 986.891 545.634C986.639 545.634 986.433 546.252 986.433 547.007C986.433 547.762 986.227 548.38 985.975 548.38C985.723 548.38 985.517 548.695 985.517 549.079C985.517 549.931 981.654 553.873 980.82 553.873C980.491 553.873 979.925 554.285 979.562 554.789C979.174 555.326 978.376 555.704 977.629 555.704C976.929 555.704 976.356 555.91 976.356 556.162C976.356 556.414 975.531 556.62 974.523 556.62C973.516 556.62 972.691 556.826 972.691 557.077C972.691 557.355 970.707 557.535 967.653 557.535C964.599 557.535 962.614 557.716 962.614 557.993C962.614 558.264 960.934 558.451 958.492 558.451C956.049 558.451 954.369 558.637 954.369 558.908C954.369 559.18 952.689 559.366 950.247 559.366C947.804 559.366 946.124 559.553 946.124 559.824C946.124 560.095 944.445 560.282 942.002 560.282C939.559 560.282 937.879 560.468 937.879 560.74C937.879 561.011 936.2 561.197 933.757 561.197C931.314 561.197 929.634 561.383 929.634 561.655C929.634 561.93 927.802 562.113 925.054 562.113C922.305 562.113 920.473 562.296 920.473 562.57C920.473 562.848 918.488 563.028 915.435 563.028C912.381 563.028 910.396 563.209 910.396 563.486C910.396 563.761 908.564 563.944 905.815 563.944C903.067 563.944 901.235 564.127 901.235 564.401C901.235 564.679 899.25 564.859 896.196 564.859C893.142 564.859 891.158 565.04 891.158 565.317C891.158 565.594 889.173 565.775 886.119 565.775C883.065 565.775 881.081 565.955 881.081 566.232C881.081 566.51 879.096 566.69 876.042 566.69C872.988 566.69 871.003 566.87 871.003 567.148C871.003 567.425 869.019 567.606 865.965 567.606C862.911 567.606 860.926 567.786 860.926 568.063C860.926 568.343 858.788 568.521 855.43 568.521C852.071 568.521 849.933 568.699 849.933 568.979C849.933 569.256 847.948 569.437 844.894 569.437C841.84 569.437 839.856 569.617 839.856 569.894C839.856 570.172 837.871 570.352 834.817 570.352C831.763 570.352 829.779 570.532 829.779 570.81C829.779 571.087 827.794 571.268 824.74 571.268C821.686 571.268 819.701 571.448 819.701 571.725C819.701 572.003 817.717 572.183 814.663 572.183C811.609 572.183 809.624 572.363 809.624 572.641C809.624 572.893 808.8 573.099 807.792 573.099C806.784 573.099 805.96 573.305 805.96 573.556C805.96 573.808 805.387 574.014 804.687 574.014C803.939 574.014 803.141 574.392 802.753 574.93C802.39 575.433 801.726 575.845 801.278 575.845C800.83 575.845 800.463 576.051 800.463 576.303C800.463 576.555 800.145 576.761 799.755 576.761C799.096 576.761 796.799 578.7 796.799 579.258C796.799 579.395 797.211 579.507 797.715 579.507C798.219 579.507 798.631 579.713 798.631 579.965C798.631 580.217 799.043 580.423 799.547 580.423C800.051 580.423 800.463 580.629 800.463 580.88C800.463 581.132 801.081 581.338 801.837 581.338C802.593 581.338 803.211 581.544 803.211 581.796C803.211 582.048 803.624 582.254 804.128 582.254C804.631 582.254 805.044 582.46 805.044 582.711C805.044 582.963 805.456 583.169 805.96 583.169C806.464 583.169 806.876 583.375 806.876 583.627C806.876 583.879 807.494 584.085 808.25 584.085C809.006 584.085 809.624 584.29 809.624 584.542C809.624 584.794 810.036 585 810.54 585C811.044 585 811.456 584.794 811.456 584.542C811.456 584.238 877.343 584.085 1008.2 584.085H1204.94L1207.45 581.577C1208.83 580.198 1209.96 578.854 1209.96 578.592C1209.96 578.329 1208.83 576.985 1207.45 575.606C1205.36 573.517 1204.67 573.099 1203.33 573.099C1202.44 573.099 1201.72 572.893 1201.72 572.641C1201.72 572.358 1199.28 572.183 1195.31 572.183C1191.34 572.183 1188.89 572.009 1188.89 571.725C1188.89 571.448 1186.91 571.268 1183.85 571.268C1180.8 571.268 1178.82 571.087 1178.82 570.81C1178.82 570.532 1176.83 570.352 1173.78 570.352C1170.72 570.352 1168.74 570.172 1168.74 569.894C1168.74 569.617 1166.75 569.437 1163.7 569.437C1160.65 569.437 1158.66 569.256 1158.66 568.979C1158.66 568.699 1156.52 568.521 1153.16 568.521C1149.81 568.521 1147.67 568.343 1147.67 568.063C1147.67 567.786 1145.68 567.606 1142.63 567.606C1139.58 567.606 1137.59 567.425 1137.59 567.148C1137.59 566.87 1135.61 566.69 1132.55 566.69C1129.5 566.69 1127.51 566.51 1127.51 566.232C1127.51 565.958 1125.68 565.775 1122.93 565.775C1120.18 565.775 1118.35 565.592 1118.35 565.317C1118.35 565.037 1116.21 564.859 1112.86 564.859C1109.5 564.859 1107.36 564.681 1107.36 564.401C1107.36 564.124 1105.37 563.944 1102.32 563.944C1099.27 563.944 1097.28 563.763 1097.28 563.486C1097.28 563.206 1095.14 563.028 1091.79 563.028C1088.43 563.028 1086.29 562.85 1086.29 562.57C1086.29 562.293 1084.3 562.113 1081.25 562.113C1078.2 562.113 1076.21 561.932 1076.21 561.655C1076.21 561.38 1074.38 561.197 1071.63 561.197C1068.88 561.197 1067.05 561.014 1067.05 560.74C1067.05 560.46 1064.91 560.282 1061.55 560.282C1058.19 560.282 1056.06 560.104 1056.06 559.824C1056.06 559.553 1054.38 559.366 1051.93 559.366C1049.49 559.366 1047.81 559.18 1047.81 558.908C1047.81 558.627 1045.52 558.451 1041.86 558.451C1038.19 558.451 1035.9 558.274 1035.9 557.993C1035.9 557.732 1034.53 557.535 1032.7 557.535C1030.86 557.535 1029.49 557.339 1029.49 557.077C1029.49 556.826 1028.67 556.62 1027.66 556.62C1026.65 556.62 1025.83 556.414 1025.83 556.162C1025.83 555.91 1025.41 555.704 1024.91 555.704C1024.41 555.704 1023.99 555.498 1023.99 555.247C1023.99 554.995 1023.58 554.789 1023.08 554.789C1022.57 554.789 1022.16 554.583 1022.16 554.331C1022.16 554.079 1021.85 553.873 1021.46 553.873C1020.28 553.873 1016.66 549.914 1016.66 548.621C1016.66 547.985 1016.46 547.465 1016.21 547.465C1015.95 547.465 1015.75 546.641 1015.75 545.634C1015.75 544.627 1015.54 543.803 1015.29 543.803C1014.59 543.803 1014.74 541.538 1015.49 540.795C1015.94 540.343 1017.21 540.141 1019.61 540.141C1021.62 540.141 1023.08 539.948 1023.08 539.683C1023.08 539.422 1024.45 539.225 1026.28 539.225C1028.12 539.225 1029.49 539.029 1029.49 538.768C1029.49 538.513 1030.71 538.31 1032.24 538.31C1033.76 538.31 1034.99 538.107 1034.99 537.852C1034.99 537.6 1036.02 537.394 1037.28 537.394C1038.54 537.394 1039.57 537.188 1039.57 536.937C1039.57 536.685 1040.6 536.479 1041.86 536.479C1043.12 536.479 1044.15 536.273 1044.15 536.021C1044.15 535.769 1045.18 535.563 1046.44 535.563C1047.7 535.563 1048.73 535.357 1048.73 535.106C1048.73 534.854 1049.55 534.648 1050.56 534.648C1051.57 534.648 1052.39 534.442 1052.39 534.19C1052.39 533.938 1053.01 533.732 1053.77 533.732C1054.52 533.732 1055.14 533.526 1055.14 533.275C1055.14 533.023 1055.97 532.817 1056.97 532.817C1057.98 532.817 1058.81 532.611 1058.81 532.359C1058.81 532.107 1059.42 531.901 1060.18 531.901C1060.94 531.901 1061.55 531.695 1061.55 531.444C1061.55 531.192 1062.17 530.986 1062.93 530.986C1063.68 530.986 1064.3 530.78 1064.3 530.528C1064.3 530.276 1064.92 530.07 1065.68 530.07C1066.43 530.07 1067.05 529.864 1067.05 529.613C1067.05 529.361 1067.67 529.155 1068.42 529.155C1069.18 529.155 1069.8 528.949 1069.8 528.697C1069.8 528.445 1070.42 528.239 1071.17 528.239C1071.93 528.239 1072.55 528.033 1072.55 527.782C1072.55 527.53 1072.96 527.324 1073.46 527.324C1073.97 527.324 1074.38 527.118 1074.38 526.866C1074.38 526.614 1075 526.408 1075.75 526.408C1076.51 526.408 1077.13 526.203 1077.13 525.951C1077.13 525.699 1077.54 525.493 1078.04 525.493C1078.55 525.493 1078.96 525.287 1078.96 525.035C1078.96 524.783 1079.37 524.577 1079.88 524.577C1080.38 524.577 1080.79 524.372 1080.79 524.12C1080.79 523.868 1081.41 523.662 1082.17 523.662C1082.92 523.662 1083.54 523.456 1083.54 523.204C1083.54 522.952 1083.95 522.747 1084.46 522.747C1084.96 522.747 1085.37 522.541 1085.37 522.289C1085.37 522.037 1085.78 521.831 1086.29 521.831C1086.79 521.831 1087.2 521.625 1087.2 521.373C1087.2 521.122 1087.82 520.916 1088.58 520.916C1089.33 520.916 1089.95 520.71 1089.95 520.458C1089.95 520.206 1090.37 520 1090.87 520C1091.37 520 1091.79 519.794 1091.79 519.542C1091.79 519.29 1092.2 519.085 1092.7 519.085C1093.21 519.085 1093.62 518.879 1093.62 518.627C1093.62 518.375 1094.03 518.169 1094.53 518.169C1095.04 518.169 1095.45 517.963 1095.45 517.711C1095.45 517.46 1095.86 517.254 1096.37 517.254C1096.87 517.254 1097.28 517.048 1097.28 516.796C1097.28 516.544 1097.69 516.338 1098.2 516.338C1098.7 516.338 1099.11 516.132 1099.11 515.88C1099.11 515.629 1099.53 515.423 1100.03 515.423C1100.53 515.423 1100.95 515.217 1100.95 514.965C1100.95 514.713 1101.36 514.507 1101.86 514.507C1102.37 514.507 1102.78 514.301 1102.78 514.049C1102.78 513.798 1103.15 513.592 1103.59 513.592C1104.04 513.592 1104.71 513.18 1105.07 512.676C1105.43 512.173 1106.1 511.761 1106.54 511.761C1106.99 511.761 1107.36 511.555 1107.36 511.303C1107.36 511.051 1107.77 510.845 1108.28 510.845C1108.78 510.845 1109.19 510.639 1109.19 510.387C1109.19 510.136 1109.56 509.93 1110.01 509.93C1110.45 509.93 1111.12 509.518 1111.48 509.014C1111.84 508.511 1112.46 508.099 1112.86 508.099C1113.25 508.099 1113.87 507.687 1114.23 507.183C1114.59 506.68 1115.26 506.268 1115.71 506.268C1116.15 506.268 1116.52 506.062 1116.52 505.81C1116.52 505.558 1116.89 505.352 1117.33 505.352C1117.78 505.352 1118.45 504.94 1118.81 504.437C1119.17 503.933 1119.84 503.521 1120.29 503.521C1120.73 503.521 1121.1 503.315 1121.1 503.063C1121.1 502.812 1121.47 502.606 1121.92 502.606C1122.36 502.606 1123.03 502.194 1123.39 501.69C1123.75 501.187 1124.37 500.775 1124.77 500.775C1125.16 500.775 1125.78 500.363 1126.14 499.859C1126.5 499.356 1127.12 498.944 1127.51 498.944C1127.91 498.944 1128.52 498.532 1128.89 498.028C1129.25 497.525 1129.83 497.113 1130.18 497.113C1130.53 497.113 1131.39 496.495 1132.09 495.739C1132.8 494.984 1133.62 494.366 1133.93 494.366C1134.23 494.366 1135.05 493.748 1135.76 492.993C1136.46 492.238 1137.29 491.62 1137.59 491.62C1137.89 491.62 1138.72 491.002 1139.42 490.246C1140.13 489.491 1140.95 488.873 1141.25 488.873C1141.54 488.873 1142.58 488.049 1143.55 487.042C1144.51 486.035 1145.54 485.211 1145.84 485.211C1146.13 485.211 1147.16 484.387 1148.13 483.38C1149.09 482.373 1150.12 481.549 1150.4 481.549C1150.69 481.549 1152.34 480.107 1154.08 478.345C1155.82 476.583 1157.46 475.141 1157.73 475.141C1158.36 475.141 1179.73 453.778 1179.73 453.146C1179.73 452.879 1180.97 451.447 1182.48 449.965C1183.99 448.482 1185.23 447.036 1185.23 446.75C1185.23 446.464 1186.05 445.44 1187.06 444.472C1188.07 443.504 1188.89 442.474 1188.89 442.183C1188.89 441.892 1189.72 440.862 1190.72 439.894C1191.73 438.927 1192.56 437.893 1192.56 437.596C1192.56 437.3 1193.18 436.48 1193.93 435.775C1194.69 435.069 1195.31 434.249 1195.31 433.953C1195.31 433.657 1196.13 432.623 1197.14 431.655C1198.15 430.687 1198.97 429.616 1198.97 429.274C1198.97 428.932 1199.38 428.356 1199.89 427.993C1200.39 427.63 1200.8 427.012 1200.8 426.62C1200.8 426.227 1201.21 425.609 1201.72 425.246C1202.22 424.883 1202.63 424.266 1202.63 423.873C1202.63 423.481 1203.05 422.863 1203.55 422.5C1204.05 422.137 1204.47 421.519 1204.47 421.127C1204.47 420.734 1204.88 420.117 1205.38 419.754C1205.89 419.391 1206.3 418.773 1206.3 418.38C1206.3 417.988 1206.71 417.37 1207.21 417.007C1207.72 416.644 1208.13 416.026 1208.13 415.634C1208.13 415.242 1208.54 414.624 1209.05 414.261C1209.55 413.898 1209.96 413.234 1209.96 412.786C1209.96 412.339 1210.17 411.972 1210.42 411.972C1210.67 411.972 1210.88 411.605 1210.88 411.158C1210.88 410.709 1211.29 410.046 1211.8 409.683C1212.3 409.32 1212.71 408.702 1212.71 408.31C1212.71 407.918 1213.12 407.3 1213.63 406.937C1214.13 406.574 1214.54 405.91 1214.54 405.462C1214.54 405.015 1214.75 404.648 1215 404.648C1215.25 404.648 1215.46 404.236 1215.46 403.732C1215.46 403.229 1215.67 402.817 1215.92 402.817C1216.17 402.817 1216.38 402.45 1216.38 402.003C1216.38 401.554 1216.79 400.891 1217.29 400.528C1217.8 400.165 1218.21 399.502 1218.21 399.054C1218.21 398.606 1218.41 398.239 1218.67 398.239C1218.92 398.239 1219.12 397.827 1219.12 397.324C1219.12 396.82 1219.33 396.408 1219.58 396.408C1219.83 396.408 1220.04 395.997 1220.04 395.493C1220.04 394.989 1220.25 394.577 1220.5 394.577C1220.75 394.577 1220.96 394.166 1220.96 393.662C1220.96 393.158 1221.16 392.746 1221.41 392.746C1221.67 392.746 1221.87 392.335 1221.87 391.831C1221.87 391.328 1222.08 390.915 1222.33 390.915C1222.58 390.915 1222.79 390.549 1222.79 390.101C1222.79 389.653 1223.2 388.99 1223.7 388.627C1224.21 388.264 1224.62 387.601 1224.62 387.152C1224.62 386.705 1224.83 386.338 1225.08 386.338C1225.33 386.338 1225.54 385.926 1225.54 385.423C1225.54 384.919 1225.74 384.507 1225.99 384.507C1226.25 384.507 1226.45 384.095 1226.45 383.592C1226.45 383.088 1226.66 382.676 1226.91 382.676C1227.16 382.676 1227.37 382.264 1227.37 381.761C1227.37 381.257 1227.58 380.845 1227.83 380.845C1228.08 380.845 1228.29 380.433 1228.29 379.93C1228.29 379.426 1228.49 379.014 1228.74 379.014C1229 379.014 1229.2 378.602 1229.2 378.099C1229.2 377.595 1229.41 377.183 1229.66 377.183C1229.91 377.183 1230.12 376.771 1230.12 376.268C1230.12 375.764 1230.32 375.352 1230.58 375.352C1230.83 375.352 1231.03 374.734 1231.03 373.979C1231.03 373.224 1231.24 372.606 1231.49 372.606C1231.74 372.606 1231.95 372.194 1231.95 371.69C1231.95 371.187 1232.16 370.775 1232.41 370.775C1232.66 370.775 1232.87 370.363 1232.87 369.859C1232.87 369.356 1233.07 368.944 1233.32 368.944C1233.58 368.944 1233.78 368.532 1233.78 368.028C1233.78 367.525 1233.99 367.113 1234.24 367.113C1234.49 367.113 1234.7 366.495 1234.7 365.739C1234.7 364.984 1234.9 364.366 1235.16 364.366C1235.41 364.366 1235.61 363.954 1235.61 363.451C1235.61 362.947 1235.82 362.535 1236.07 362.535C1236.32 362.535 1236.53 362.123 1236.53 361.62C1236.53 361.116 1236.74 360.704 1236.99 360.704C1237.24 360.704 1237.45 360.086 1237.45 359.331C1237.45 358.576 1237.65 357.958 1237.9 357.958C1238.16 357.958 1238.36 357.546 1238.36 357.042C1238.36 356.539 1238.57 356.127 1238.82 356.127C1239.07 356.127 1239.28 355.509 1239.28 354.754C1239.28 353.998 1239.48 353.38 1239.74 353.38C1239.99 353.38 1240.19 352.968 1240.19 352.465C1240.19 351.961 1240.4 351.549 1240.65 351.549C1240.9 351.549 1241.11 351.137 1241.11 350.634C1241.11 350.13 1241.32 349.718 1241.57 349.718C1241.82 349.718 1242.03 349.1 1242.03 348.345C1242.03 347.59 1242.23 346.972 1242.48 346.972C1242.74 346.972 1242.94 346.56 1242.94 346.056C1242.94 345.553 1243.15 345.141 1243.4 345.141C1243.65 345.141 1243.86 344.523 1243.86 343.768C1243.86 343.012 1244.07 342.394 1244.32 342.394C1244.57 342.394 1244.78 341.982 1244.78 341.479C1244.78 340.975 1244.98 340.563 1245.23 340.563C1245.49 340.563 1245.69 339.945 1245.69 339.19C1245.69 338.435 1245.9 337.817 1246.15 337.817C1246.4 337.817 1246.61 337.199 1246.61 336.444C1246.61 335.688 1246.81 335.07 1247.07 335.07C1247.32 335.07 1247.52 334.658 1247.52 334.155C1247.52 333.651 1247.73 333.239 1247.98 333.239C1248.23 333.239 1248.44 332.621 1248.44 331.866C1248.44 331.111 1248.65 330.493 1248.9 330.493C1249.15 330.493 1249.36 329.875 1249.36 329.12C1249.36 328.364 1249.56 327.746 1249.81 327.746C1250.07 327.746 1250.27 327.129 1250.27 326.373C1250.27 325.618 1250.48 325 1250.73 325C1250.98 325 1251.19 324.382 1251.19 323.627C1251.19 322.871 1251.39 322.254 1251.65 322.254C1251.9 322.254 1252.1 321.636 1252.1 320.88C1252.1 320.125 1252.31 319.507 1252.56 319.507C1252.81 319.507 1253.02 318.889 1253.02 318.134C1253.02 317.379 1253.23 316.761 1253.48 316.761C1253.73 316.761 1253.94 316.143 1253.94 315.387C1253.94 314.632 1254.14 314.014 1254.39 314.014C1254.65 314.014 1254.85 313.396 1254.85 312.641C1254.85 311.886 1255.06 311.268 1255.31 311.268C1255.56 311.268 1255.77 310.444 1255.77 309.437C1255.77 308.43 1255.97 307.606 1256.23 307.606C1256.48 307.606 1256.68 306.988 1256.68 306.232C1256.68 305.477 1256.89 304.859 1257.14 304.859C1257.39 304.859 1257.6 304.241 1257.6 303.486C1257.6 302.731 1257.81 302.113 1258.06 302.113C1258.31 302.113 1258.52 301.289 1258.52 300.282C1258.52 299.275 1258.72 298.451 1258.97 298.451C1259.23 298.451 1259.43 297.833 1259.43 297.077C1259.43 296.322 1259.64 295.704 1259.89 295.704C1260.14 295.704 1260.35 295.086 1260.35 294.331C1260.35 293.576 1260.56 292.958 1260.81 292.958C1261.06 292.958 1261.27 292.134 1261.27 291.127C1261.27 290.12 1261.47 289.296 1261.72 289.296C1261.98 289.296 1262.18 288.472 1262.18 287.465C1262.18 286.458 1262.39 285.634 1262.64 285.634C1262.89 285.634 1263.1 285.016 1263.1 284.261C1263.1 283.505 1263.3 282.887 1263.56 282.887C1263.81 282.887 1264.01 282.063 1264.01 281.056C1264.01 280.049 1264.22 279.225 1264.47 279.225C1264.72 279.225 1264.93 278.401 1264.93 277.394C1264.93 276.387 1265.14 275.563 1265.39 275.563C1265.64 275.563 1265.85 274.739 1265.85 273.732C1265.85 272.725 1266.05 271.901 1266.3 271.901C1266.56 271.901 1266.76 270.872 1266.76 269.613C1266.76 268.354 1266.97 267.324 1267.22 267.324C1267.47 267.324 1267.68 266.5 1267.68 265.493C1267.68 264.486 1267.88 263.662 1268.14 263.662C1268.39 263.662 1268.59 262.632 1268.59 261.373C1268.59 260.114 1268.8 259.085 1269.05 259.085C1269.3 259.085 1269.51 258.261 1269.51 257.254C1269.51 256.246 1269.72 255.423 1269.97 255.423C1270.22 255.423 1270.43 254.202 1270.43 252.676C1270.43 251.15 1270.63 249.93 1270.88 249.93C1271.14 249.93 1271.34 248.9 1271.34 247.641C1271.34 246.382 1271.55 245.352 1271.8 245.352C1272.05 245.352 1272.26 244.322 1272.26 243.063C1272.26 241.805 1272.46 240.775 1272.72 240.775C1272.97 240.775 1273.17 239.554 1273.17 238.028C1273.17 236.502 1273.38 235.282 1273.63 235.282C1273.89 235.282 1274.09 234.061 1274.09 232.535C1274.09 231.01 1274.29 229.789 1274.55 229.789C1274.8 229.789 1275.01 228.568 1275.01 227.042C1275.01 225.517 1275.21 224.296 1275.46 224.296C1275.72 224.296 1275.92 223.075 1275.92 221.549C1275.92 220.024 1276.13 218.803 1276.38 218.803C1276.64 218.803 1276.84 217.43 1276.84 215.599C1276.84 213.768 1277.04 212.394 1277.3 212.394C1277.55 212.394 1277.76 211.174 1277.76 209.648C1277.76 208.122 1277.96 206.901 1278.21 206.901C1278.48 206.901 1278.67 205.376 1278.67 203.239C1278.67 201.103 1278.86 199.577 1279.13 199.577C1279.4 199.577 1279.59 198.052 1279.59 195.916C1279.59 193.779 1279.78 192.254 1280.05 192.254C1280.32 192.254 1280.5 190.575 1280.5 188.134C1280.5 185.693 1280.69 184.014 1280.96 184.014C1281.24 184.014 1281.42 182.183 1281.42 179.437C1281.42 176.69 1281.6 174.859 1281.88 174.859C1282.16 174.859 1282.34 172.876 1282.34 169.824C1282.34 166.772 1282.52 164.789 1282.79 164.789C1283.07 164.789 1283.25 162.958 1283.25 160.211C1283.25 157.465 1283.43 155.634 1283.71 155.634C1284 155.634 1284.17 152.735 1284.17 147.852C1284.17 142.969 1284.34 140.07 1284.63 140.07C1284.92 140.07 1285.08 133.662 1285.08 121.761C1285.08 109.859 1285.24 103.451 1285.54 103.451C1285.83 103.451 1286 101.01 1286 97.0423C1286 93.075 1285.83 90.6338 1285.54 90.6338C1285.26 90.6338 1285.08 88.6504 1285.08 85.5986C1285.08 82.5468 1284.9 80.5634 1284.63 80.5634C1284.37 80.5634 1284.17 79.7394 1284.17 78.7324C1284.17 77.7254 1283.96 76.9014 1283.71 76.9014C1283.46 76.9014 1283.25 76.4894 1283.25 75.9859C1283.25 75.4824 1283.05 75.0704 1282.79 75.0704C1282.54 75.0704 1282.34 74.6585 1282.34 74.1549C1282.34 73.6514 1282.13 73.2394 1281.88 73.2394C1281.63 73.2394 1281.42 72.9273 1281.42 72.5455C1281.42 71.7014 1274.8 65 1273.97 65C1273.64 65 1273.08 64.588 1272.72 64.0845C1272.35 63.581 1271.73 63.169 1271.34 63.169C1270.95 63.169 1270.33 62.757 1269.97 62.2535C1269.6 61.75 1268.99 61.338 1268.59 61.338C1268.2 61.338 1267.58 60.9261 1267.22 60.4225C1266.86 59.919 1266.19 59.507 1265.74 59.507C1265.3 59.507 1264.93 59.3011 1264.93 59.0493C1264.93 58.7975 1264.56 58.5916 1264.11 58.5916C1263.67 58.5916 1263 58.1796 1262.64 57.6761C1262.28 57.1725 1261.66 56.7606 1261.27 56.7606C1260.87 56.7606 1260.25 56.3486 1259.89 55.8451C1259.53 55.3416 1258.86 54.9296 1258.42 54.9296C1257.97 54.9296 1257.6 54.7236 1257.6 54.4718C1257.6 54.2201 1257.23 54.0141 1256.79 54.0141C1256.34 54.0141 1255.67 53.6021 1255.31 53.0986C1254.95 52.5951 1254.33 52.1831 1253.94 52.1831C1253.54 52.1831 1252.93 51.7711 1252.56 51.2676C1252.2 50.7641 1251.54 50.3521 1251.09 50.3521C1250.64 50.3521 1250.27 50.1461 1250.27 49.8944C1250.27 49.6426 1249.9 49.4366 1249.46 49.4366C1249.01 49.4366 1248.34 49.0246 1247.98 48.5211C1247.62 48.0176 1247 47.6056 1246.61 47.6056C1246.21 47.6056 1245.6 47.1937 1245.23 46.6901C1244.87 46.1866 1244.21 45.7747 1243.76 45.7747C1243.31 45.7747 1242.94 45.5687 1242.94 45.3169C1242.94 45.0651 1242.58 44.8592 1242.13 44.8592C1241.68 44.8592 1241.02 44.4472 1240.65 43.9437C1240.29 43.4401 1239.67 43.0282 1239.28 43.0282C1238.89 43.0282 1238.27 42.6162 1237.9 42.1127C1237.54 41.6092 1236.92 41.1972 1236.53 41.1972C1236.14 41.1972 1235.52 40.7852 1235.16 40.2817C1234.79 39.7782 1234.13 39.3662 1233.68 39.3662C1233.23 39.3662 1232.87 39.1602 1232.87 38.9085C1232.87 38.6567 1232.5 38.4507 1232.05 38.4507C1231.6 38.4507 1230.94 38.0387 1230.58 37.5352C1230.21 37.0317 1229.55 36.6197 1229.1 36.6197C1228.65 36.6197 1228.29 36.4137 1228.29 36.162C1228.29 35.9102 1227.92 35.7042 1227.47 35.7042C1227.02 35.7042 1226.36 35.2923 1225.99 34.7887C1225.63 34.2852 1224.97 33.8732 1224.52 33.8732C1224.07 33.8732 1223.7 33.6673 1223.7 33.4155C1223.7 33.1637 1223.34 32.9577 1222.89 32.9577C1222.44 32.9577 1221.78 32.5458 1221.41 32.0423C1221.05 31.5387 1220.39 31.1268 1219.94 31.1268C1219.49 31.1268 1219.12 30.9208 1219.12 30.669C1219.12 30.4173 1218.76 30.2113 1218.31 30.2113C1217.86 30.2113 1217.2 29.7993 1216.83 29.2958C1216.47 28.7923 1215.85 28.3803 1215.46 28.3803C1215.07 28.3803 1214.45 27.9683 1214.09 27.4648C1213.72 26.9613 1213.06 26.5493 1212.61 26.5493C1212.16 26.5493 1211.8 26.3433 1211.8 26.0916C1211.8 25.8398 1211.43 25.6338 1210.98 25.6338C1210.53 25.6338 1209.87 25.2218 1209.51 24.7183C1209.14 24.2148 1208.48 23.8028 1208.03 23.8028C1207.58 23.8028 1207.21 23.5968 1207.21 23.3451C1207.21 23.0933 1206.85 22.8873 1206.4 22.8873C1205.95 22.8873 1205.29 22.4754 1204.92 21.9718C1204.56 21.4683 1203.9 21.0563 1203.45 21.0563C1203 21.0563 1202.63 20.8504 1202.63 20.5986C1202.63 20.3468 1202.27 20.1408 1201.82 20.1408C1201.37 20.1408 1200.71 19.7289 1200.34 19.2254C1199.98 18.7218 1199.32 18.3099 1198.87 18.3099C1198.42 18.3099 1198.05 18.1039 1198.05 17.8521C1198.05 17.6004 1197.64 17.3944 1197.14 17.3944C1196.63 17.3944 1196.22 17.1884 1196.22 16.9366C1196.22 16.6849 1195.85 16.4789 1195.41 16.4789C1194.96 16.4789 1194.29 16.0669 1193.93 15.5634C1193.57 15.0599 1192.9 14.6479 1192.46 14.6479C1192.01 14.6479 1191.64 14.4419 1191.64 14.1901C1191.64 13.9384 1191.27 13.7324 1190.83 13.7324C1190.38 13.7324 1189.71 13.3204 1189.35 12.8169C1188.99 12.3134 1188.37 11.9014 1187.98 11.9014C1187.58 11.9014 1186.97 11.4894 1186.6 10.9859C1186.24 10.4824 1185.58 10.0704 1185.13 10.0704C1184.68 10.0704 1184.31 9.86444 1184.31 9.61268C1184.31 9.36092 1183.9 9.15493 1183.4 9.15493C1182.89 9.15493 1182.48 8.94894 1182.48 8.69718C1182.48 8.44542 1182.11 8.23944 1181.67 8.23944C1181.22 8.23944 1180.55 7.82747 1180.19 7.32394C1179.83 6.82042 1179.16 6.40845 1178.71 6.40845C1178.27 6.40845 1177.9 6.20246 1177.9 5.9507C1177.9 5.69894 1177.28 5.49296 1176.53 5.49296C1175.77 5.49296 1175.15 5.28697 1175.15 5.03521C1175.15 4.78345 1174.74 4.57747 1174.23 4.57747C1173.73 4.57747 1173.32 4.37148 1173.32 4.11972C1173.32 3.86796 1172.91 3.66197 1172.4 3.66197C1171.9 3.66197 1171.49 3.45599 1171.49 3.20423C1171.49 2.95246 1170.87 2.74648 1170.11 2.74648C1169.36 2.74648 1168.74 2.54049 1168.74 2.28873C1168.74 2.03697 1167.91 1.83099 1166.91 1.83099C1165.9 1.83099 1165.07 1.625 1165.07 1.37324C1165.07 1.11873 1163.85 0.915493 1162.33 0.915493C1160.8 0.915493 1159.58 0.712254 1159.58 0.457747C1159.58 0.183099 1157.75 0 1155 0C1152.25 0 1150.42 0.183099 1150.42 0.457747Z" fill="#333333"></path> </svg> 